<svg xmlns="http://www.w3.org/2000/svg" xmlns:xlink="http://www.w3.org/1999/xlink" xmlns:lucid="lucid" width="1580" height="800"><g transform="translate(-160 -20)" lucid:page-tab-id="0_0"><path d="M160 86a6 6 0 0 1 6-6h228a6 6 0 0 1 6 6v48a6 6 0 0 1-6 6H166a6 6 0 0 1-6-6z" fill="none"/><use xlink:href="#a" transform="matrix(1,0,0,1,160,80) translate(50.45247395833334 38.083767361111114)"/><path d="M160 306a6 6 0 0 1 6-6h228a6 6 0 0 1 6 6v48a6 6 0 0 1-6 6H166a6 6 0 0 1-6-6z" fill="none"/><use xlink:href="#b" transform="matrix(1,0,0,1,160,300) translate(65.22026909722223 38.083767361111114)"/><path d="M160 526a6 6 0 0 1 6-6h228a6 6 0 0 1 6 6v48a6 6 0 0 1-6 6H166a6 6 0 0 1-6-6z" fill="none"/><use xlink:href="#c" transform="matrix(1,0,0,1,160,520) translate(85.93424479166667 38.083767361111114)"/><path d="M160 746a6 6 0 0 1 6-6h228a6 6 0 0 1 6 6v48a6 6 0 0 1-6 6H166a6 6 0 0 1-6-6z" fill="none"/><use xlink:href="#d" transform="matrix(1,0,0,1,160,740) translate(99.49761284722223 38.083767361111114)"/><g opacity=".5" fill="none"><path d="M181 201h1538"/><path d="M181 201h2m8 0h4.02m8 0h4m8.02 0h4m8.02 0h4m8.02 0h4m8 0h4.02m8 0h4m8.02 0h4m8.02 0h4m8 0h4.02m8 0h4m8.02 0h4m8.02 0h4m8.02 0h4m8 0h4.02m8 0h4m8.02 0h4m8.02 0h4m8 0h4.02m8 0h4m8.03 0h4m8 0h4.02m8 0h4m8.02 0h4m8.02 0h4m8 0h4m8.02 0h4m8 0h4.02m8 0h4.02m8 0h4m8.02 0h4m8.02 0h4m8 0h4.02m8 0h4m8.02 0h4m8.02 0h4m8.02 0h4m8 0h4.02m8 0h4m8.02 0h4m8.02 0h4m8 0h4.02m8 0h4m8.02 0h4m8.02 0h4m8.02 0h4m8 0h4.02m8 0h4m8.02 0h4m8.02 0h4m8 0h4.02m8 0h4.02m8 0h4m8.02 0h4m8.02 0h4m8 0h4.02m8 0h4m8.02 0h4m8.02 0h4m8 0h4.02m8 0h4.02m8 0h4m8.02 0h4m8.02 0h4m8 0h4.02m8 0h4m8.02 0h4m8.02 0h4m8.02 0h4m8 0h4.02m8 0h4m8.02 0h4m8.02 0h4m8 0h4.02m8 0h4m8.02 0h4m8.02 0h4m8.02 0h4m8 0h4.02m8 0h4m8.02 0h4m8.02 0h4m8 0h4.02m8 0h4.02m8 0h4m8.02 0h4m8.02 0h4m8 0h4.02m8 0h4m8.02 0h4m8.02 0h4m8 0h4.02m8 0h4.02m8 0h4m8.02 0h4m8.02 0h4m8 0h4.02m8 0h4m8.02 0h4m8.02 0h4m8.02 0h4m8 0h4.02m8 0h4m8.02 0h4m8.02 0h4m8 0h4.02m8 0h4m8.02 0h4m8.02 0h4m8.02 0h4m8 0h4.02m8 0h4m8.02 0h4m8.02 0h4m8 0h4.02m8 0h4.02m8 0h4m8.02 0h4m8.02 0h4m8 0h4.02m8 0h4m8.02 0h4m8.02 0h4m8 0h4.02m8 0h4.02m8 0h4m8.02 0h4m8.02 0h2" stroke="#979ea8" stroke-width="2" stroke-linecap="round"/></g><g opacity=".5" fill="none"><path d="M181 440h1538"/><path d="M181 440h2m8 0h4.02m8 0h4m8.02 0h4m8.02 0h4m8.02 0h4m8 0h4.02m8 0h4m8.02 0h4m8.02 0h4m8 0h4.02m8 0h4m8.02 0h4m8.02 0h4m8.02 0h4m8 0h4.02m8 0h4m8.02 0h4m8.02 0h4m8 0h4.02m8 0h4m8.03 0h4m8 0h4.02m8 0h4m8.02 0h4m8.02 0h4m8 0h4m8.02 0h4m8 0h4.02m8 0h4.02m8 0h4m8.02 0h4m8.02 0h4m8 0h4.02m8 0h4m8.02 0h4m8.02 0h4m8.02 0h4m8 0h4.02m8 0h4m8.02 0h4m8.02 0h4m8 0h4.02m8 0h4m8.02 0h4m8.02 0h4m8.02 0h4m8 0h4.02m8 0h4m8.02 0h4m8.02 0h4m8 0h4.02m8 0h4.02m8 0h4m8.02 0h4m8.02 0h4m8 0h4.02m8 0h4m8.02 0h4m8.02 0h4m8 0h4.02m8 0h4.02m8 0h4m8.02 0h4m8.02 0h4m8 0h4.02m8 0h4m8.02 0h4m8.02 0h4m8.02 0h4m8 0h4.02m8 0h4m8.02 0h4m8.02 0h4m8 0h4.02m8 0h4m8.02 0h4m8.02 0h4m8.02 0h4m8 0h4.02m8 0h4m8.02 0h4m8.02 0h4m8 0h4.02m8 0h4.02m8 0h4m8.02 0h4m8.02 0h4m8 0h4.02m8 0h4m8.02 0h4m8.02 0h4m8 0h4.02m8 0h4.02m8 0h4m8.02 0h4m8.02 0h4m8 0h4.02m8 0h4m8.02 0h4m8.02 0h4m8.02 0h4m8 0h4.02m8 0h4m8.02 0h4m8.02 0h4m8 0h4.02m8 0h4m8.02 0h4m8.02 0h4m8.02 0h4m8 0h4.02m8 0h4m8.02 0h4m8.02 0h4m8 0h4.02m8 0h4.02m8 0h4m8.02 0h4m8.02 0h4m8 0h4.02m8 0h4m8.02 0h4m8.02 0h4m8 0h4.02m8 0h4.02m8 0h4m8.02 0h4m8.02 0h2" stroke="#979ea8" stroke-width="2" stroke-linecap="round"/></g><g opacity=".5" fill="none"><path d="M181 660h1538"/><path d="M181 660h2m8 0h4.02m8 0h4m8.02 0h4m8.02 0h4m8.02 0h4m8 0h4.02m8 0h4m8.02 0h4m8.02 0h4m8 0h4.02m8 0h4m8.02 0h4m8.02 0h4m8.02 0h4m8 0h4.02m8 0h4m8.02 0h4m8.02 0h4m8 0h4.02m8 0h4m8.03 0h4m8 0h4.02m8 0h4m8.02 0h4m8.02 0h4m8 0h4m8.02 0h4m8 0h4.02m8 0h4.02m8 0h4m8.02 0h4m8.02 0h4m8 0h4.02m8 0h4m8.02 0h4m8.02 0h4m8.02 0h4m8 0h4.02m8 0h4m8.02 0h4m8.02 0h4m8 0h4.02m8 0h4m8.02 0h4m8.02 0h4m8.02 0h4m8 0h4.02m8 0h4m8.02 0h4m8.02 0h4m8 0h4.02m8 0h4.02m8 0h4m8.02 0h4m8.02 0h4m8 0h4.02m8 0h4m8.02 0h4m8.02 0h4m8 0h4.02m8 0h4.02m8 0h4m8.02 0h4m8.02 0h4m8 0h4.02m8 0h4m8.02 0h4m8.02 0h4m8.02 0h4m8 0h4.02m8 0h4m8.02 0h4m8.02 0h4m8 0h4.02m8 0h4m8.02 0h4m8.02 0h4m8.02 0h4m8 0h4.02m8 0h4m8.02 0h4m8.02 0h4m8 0h4.02m8 0h4.02m8 0h4m8.02 0h4m8.02 0h4m8 0h4.02m8 0h4m8.02 0h4m8.02 0h4m8 0h4.02m8 0h4.02m8 0h4m8.02 0h4m8.02 0h4m8 0h4.02m8 0h4m8.02 0h4m8.02 0h4m8.02 0h4m8 0h4.02m8 0h4m8.02 0h4m8.02 0h4m8 0h4.02m8 0h4m8.02 0h4m8.02 0h4m8.02 0h4m8 0h4.02m8 0h4m8.02 0h4m8.02 0h4m8 0h4.02m8 0h4.02m8 0h4m8.02 0h4m8.02 0h4m8 0h4.02m8 0h4m8.02 0h4m8.02 0h4m8 0h4.02m8 0h4.02m8 0h4m8.02 0h4m8.02 0h2" stroke="#979ea8" stroke-width="2" stroke-linecap="round"/></g><path d="M480 506a6 6 0 0 1 6-6h148a6 6 0 0 1 6 6v114c-26.72-20.04-43.36-20.04-53.44-20.04-16 0-37.28 20.04-53.28 20.04-9.92 0-26.72 0-53.28-20.04z" stroke="#000" stroke-width="2" fill="#fff"/><use xlink:href="#e" transform="matrix(1,0,0,1,485,505) translate(41.39453124999999 51.07682291666667)"/><path d="M800 506a6 6 0 0 1 6-6h148a6 6 0 0 1 6 6v114c-26.72-20.04-43.36-20.04-53.44-20.04-16 0-37.28 20.04-53.28 20.04-9.92 0-26.72 0-53.28-20.04z" stroke="#000" stroke-width="2" fill="#fff"/><use xlink:href="#f" transform="matrix(1,0,0,1,805,505) translate(18.99088541666665 51.07682291666667)"/><path d="M460 46a6 6 0 0 1 6-6h188a6 6 0 0 1 6 6v108a6 6 0 0 1-6 6H466a6 6 0 0 1-6-6z" stroke="#000" stroke-width="2" fill="#fff"/><use xlink:href="#g" transform="matrix(1,0,0,1,472,52) translate(-7.215494791666657 54.46223958333333)"/><path d="M779.5 46a6 6 0 0 1 6-6h188a6 6 0 0 1 6 6v108a6 6 0 0 1-6 6h-188a6 6 0 0 1-6-6z" stroke="#000" stroke-width="2" fill="#fff"/><use xlink:href="#h" transform="matrix(1,0,0,1,791.5018633540373,52) translate(37.591796874999986 53.32682291666667)"/><path d="M480 260.5c26.56 19.92 43.36 19.92 53.28 19.92 16 0 37.28-19.92 53.28-19.92 10.08 0 26.72 0 53.44 19.92V380.5c-26.72-20.04-43.36-20.04-53.44-20.04-16 0-37.28 20.04-53.28 20.04-9.92 0-26.72 0-53.28-20.04z" stroke="#000" stroke-width="2" fill="#fff"/><use xlink:href="#i" transform="matrix(1,0,0,1,485,265.5) translate(35.79361979166666 62.01432291666667)"/><path d="M800 260c26.56 19.92 43.36 19.92 53.28 19.92 16 0 37.28-19.92 53.28-19.92 10.08 0 26.72 0 53.44 19.92V380c-26.72-20.04-43.36-20.04-53.44-20.04-16 0-37.28 20.04-53.28 20.04-9.92 0-26.72 0-53.28-20.04z" stroke="#000" stroke-width="2" fill="#fff"/><use xlink:href="#j" transform="matrix(1,0,0,1,805,265) translate(13.389973958333314 62.01432291666667)"/><g fill="none" opacity=".5"><path d="M1081 21v798"/><path d="M1081 21v2m0 7.92v3.98m0 7.94v3.97m0 7.95v3.97m0 7.94v3.97m0 7.94v3.97m0 7.94v3.97m0 7.94v3.96m0 7.94v3.97m0 7.94v3.98m0 7.94v3.97m0 7.93V154m0 7.94v3.97m0 7.95v3.97m0 7.94v3.97m0 7.94v3.97m0 7.94v3.97m0 7.94v3.96m0 7.94v3.97m0 7.94v3.98m0 7.94v3.97m0 7.93v3.97m0 7.94V285m0 7.96v3.96m0 7.95v3.97m0 7.94v3.97m0 7.94v3.96m0 7.94v3.97m0 7.94v3.98m0 7.94v3.97m0 7.93v3.97m0 7.94v3.97m0 7.95v3.97m0 7.94v3.97m0 7.94v3.97m0 7.94v3.97m0 7.94v3.96m0 7.94v3.97m0 7.94v3.98m0 7.94v3.97m0 7.93v3.97m0 7.94v3.97m0 7.95v3.97m0 7.94v3.97m0 7.95v3.97m0 7.93v3.97m0 7.95v3.97m0 7.94v3.98m0 7.94v3.97m0 7.93v3.97m0 7.94v3.97m0 7.95v3.97m0 7.94v3.97m0 7.94v3.97m0 7.94v3.97m0 7.94v3.96m0 7.94v3.97m0 7.94v3.98m0 7.94v3.97m0 7.93v3.97m0 7.94v3.97m0 7.95v3.97m0 7.94v3.97m0 7.94v3.97m0 7.94v3.97m0 7.94v3.96m0 7.94v3.98m0 7.94V819" stroke="#979ea8" stroke-width="2" stroke-linecap="round"/></g><path d="M919.5 720c22.1 0 40 17.9 40 40s-17.9 40-40 40h-80c-22.1 0-40-17.9-40-40s17.9-40 40-40z" stroke="#000" stroke-width="2" fill="#fff"/><use xlink:href="#k" transform="matrix(1,0,0,1,804.5018633540373,725) translate(34.99348958333333 42.502170138888886)"/><path d="M1320 720c22.1 0 40 17.9 40 40s-17.9 40-40 40h-80c-22.1 0-40-17.9-40-40s17.9-40 40-40z" stroke="#000" stroke-width="2" fill="#fff"/><use xlink:href="#l" transform="matrix(1,0,0,1,1205,725) translate(34.99348958333333 42.502170138888886)"/><path d="M1500 86a6 6 0 0 1 6-6h228a6 6 0 0 1 6 6v48a6 6 0 0 1-6 6h-228a6 6 0 0 1-6-6z" fill="none"/><use xlink:href="#m" transform="matrix(1,0,0,1,1500,80) translate(83.623046875 38.083767361111114)"/><path d="M1500 306a6 6 0 0 1 6-6h228a6 6 0 0 1 6 6v48a6 6 0 0 1-6 6h-228a6 6 0 0 1-6-6z" fill="none"/><use xlink:href="#n" transform="matrix(1,0,0,1,1500,300) translate(61.959635416666664 38.083767361111114)"/><path d="M1500 526a6 6 0 0 1 6-6h228a6 6 0 0 1 6 6v48a6 6 0 0 1-6 6h-228a6 6 0 0 1-6-6z" fill="none"/><use xlink:href="#o" transform="matrix(1,0,0,1,1500,520) translate(50.94075520833333 38.083767361111114)"/><path d="M1500 746a6 6 0 0 1 6-6h228a6 6 0 0 1 6 6v48a6 6 0 0 1-6 6h-228a6 6 0 0 1-6-6z" fill="none"/><use xlink:href="#d" transform="matrix(1,0,0,1,1500,740.0000000000001) translate(99.49761284722223 38.083767361111114)"/><path d="M560 162.5v86.35" stroke="#3a414a" stroke-width="3" fill="none"/><path d="M561.48 162.54h-2.96V161h2.96z" stroke="#3a414a" stroke-width=".05" fill="#3a414a"/><path d="M560 264.62l-4.63-14.27h9.26z" stroke="#3a414a" stroke-width="3" fill="#3a414a"/><path d="M560 372.88v105.5" stroke="#3a414a" stroke-width="3" fill="none"/><path d="M561.48 372.92h-2.96v-.8l2.96-1.48z" stroke="#3a414a" stroke-width=".05" fill="#3a414a"/><path d="M560 494.15l-4.63-14.27h9.26z" stroke="#3a414a" stroke-width="3" fill="#3a414a"/><path d="M642.5 560h61.25a6 6 0 0 0 6-6V106a6 6 0 0 1 6-6h42.13" stroke="#3a414a" stroke-width="3" fill="none"/><path d="M642.54 561.48H641v-2.96h1.54z" stroke="#3a414a" stroke-width=".05" fill="#3a414a"/><path d="M773.65 100l-14.27 4.64v-9.28z" stroke="#3a414a" stroke-width="3" fill="#3a414a"/><path d="M879.5 162.5v86.1" stroke="#3a414a" stroke-width="3" fill="none"/><path d="M880.98 162.54h-2.95V161h2.95z" stroke="#3a414a" stroke-width=".05" fill="#3a414a"/><path d="M879.5 264.37l-4.63-14.27h9.27z" stroke="#3a414a" stroke-width="3" fill="#3a414a"/><path d="M880 372.38v106" stroke="#3a414a" stroke-width="3" fill="none"/><path d="M881.48 372.42h-2.96v-.8l2.96-1.48z" stroke="#3a414a" stroke-width=".05" fill="#3a414a"/><path d="M880 494.15l-4.63-14.27h9.26z" stroke="#3a414a" stroke-width="3" fill="#3a414a"/><path d="M880 612.38v52.3a.25.25 0 0 1-.25.26.25.25 0 0 0-.25.25v33.18" stroke="#3a414a" stroke-width="3" fill="none"/><path d="M881.48 612.42h-2.96v-.8l2.96-1.48z" stroke="#3a414a" stroke-width=".05" fill="#3a414a"/><path d="M879.5 714.15l-4.63-14.27h9.27z" stroke="#3a414a" stroke-width="3" fill="#3a414a"/><path d="M1175 65.92a6.6 6.6 0 0 1 5.97-6.57l198.06-18.78A5.46 5.46 0 0 1 1385 46v108a6 6 0 0 1-6 6h-198a6 6 0 0 1-6-6z" stroke="#000" stroke-width="2" fill="#fff"/><use xlink:href="#p" transform="matrix(1,0,0,1,1180,65) translate(25.32118055555557 50.251736111111114)"/><path d="M1200 266a6 6 0 0 1 6-6h148a6 6 0 0 1 6 6v114c-26.72-20.04-43.36-20.04-53.44-20.04-16 0-37.28 20.04-53.28 20.04-9.92 0-26.72 0-53.28-20.04z" stroke="#000" stroke-width="2" fill="#fff"/><use xlink:href="#q" transform="matrix(1,0,0,1,1205,265) translate(-3.4127604166666714 51.46223958333333)"/><path d="M1280 162.5v75.88" stroke="#3a414a" stroke-width="3" fill="none"/><path d="M1281.47 162.54h-2.94V161h2.94z" stroke="#3a414a" stroke-width=".05" fill="#3a414a"/><path d="M1280 254.15l-4.63-14.27h9.27z" stroke="#3a414a" stroke-width="3" fill="#3a414a"/><path d="M1274.88 467.63a9.82 9.82 0 0 1 10.24 0l129.76 79.24a3.66 3.66 0 0 1 0 6.26l-129.76 79.24a9.82 9.82 0 0 1-10.24 0l-129.76-79.24a3.66 3.66 0 0 1 0-6.26z" stroke="#000" stroke-width="2" fill="#fff"/><use xlink:href="#r" transform="matrix(1,0,0,1,1145,469.5) translate(6.179036458333371 86.96223958333334)"/><path d="M1280 463.7v-72.2" stroke="#3a414a" stroke-width="3" fill="none"/><path d="M1281.47 465.3l-.3-.05-1.17-.06-1.18.05-.3.05v-1.65h2.95z" stroke="#3a414a" stroke-width=".05" fill="#3a414a"/><path d="M1280 375.74l4.63 14.26h-9.27z" stroke="#3a414a" stroke-width="3" fill="#3a414a"/><path d="M1362.5 320h71.5a6 6 0 0 1 6 6v427.98a6 6 0 0 1-6 6h-52.38" stroke="#3a414a" stroke-width="3" fill="none"/><path d="M1362.54 321.48H1361v-2.96h1.54z" stroke="#3a414a" stroke-width=".05" fill="#3a414a"/><path d="M1365.85 759.98l14.27-4.63v9.27z" stroke="#3a414a" stroke-width="3" fill="#3a414a"/><path d="M978 760h200.38" stroke="#54c45e" stroke-width="3" fill="none"/><path d="M963.5 760l13-7.5v15zM1194.14 760l-14.26 4.63v-9.26z" stroke="#54c45e" stroke-width="3" fill="#54c45e"/><path d="M959.5 706a6 6 0 0 1 6-6h228a6 6 0 0 1 6 6v48a6 6 0 0 1-6 6h-228a6 6 0 0 1-6-6z" fill="none"/><use xlink:href="#s" transform="matrix(1,0,0,1,959.5018633540373,700) translate(99.02560763888889 38.083767361111114)"/><defs><path fill="#979ea8" d="M783 20c-382 0-661-292-661-764 0-473 279-766 661-766 302 0 548 182 601 489h-190c-42-204-217-313-411-313-268 0-476 208-476 590 0 381 209 588 476 588 195 0 369-110 411-313h190c-52 303-296 489-601 489" id="t"/><path fill="#979ea8" d="M338-1490V0H158v-1490h180" id="u"/><path fill="#979ea8" d="M537 14c-226 0-379-139-379-422v-710h180v695c0 172 97 275 253 275 160 0 281-109 281-300v-670h181V0H879v-209C806-46 684 14 537 14" id="v"/><path fill="#979ea8" d="M538 24C308 24 148-78 108-271l171-41c32 123 123 178 257 178 156 0 256-77 256-169 0-77-54-128-164-154l-186-44c-203-48-300-148-300-305 0-192 176-326 414-326 230 0 351 112 402 269l-163 42c-31-80-94-158-238-158-133 0-233 69-233 162 0 83 57 129 188 160l169 40c203 48 298 149 298 302 0 196-179 339-441 339" id="w"/><path fill="#979ea8" d="M598-1118v154H368v674c0 100 37 144 132 144 23 0 62-6 92-12L629-6c-37 13-88 20-134 20-193 0-307-107-307-290v-688H20v-154h168v-266h180v266h230" id="x"/><path fill="#979ea8" d="M628 24c-324 0-524-230-524-574 0-343 198-582 503-582 237 0 487 146 487 559v75H286c9 234 145 362 343 362 132 0 231-58 273-172l174 48C1024-91 857 24 628 24zM287-650h624c-17-190-120-322-304-322-192 0-309 151-320 322" id="y"/><path fill="#979ea8" d="M158 0v-1118h174v172h12c41-113 157-188 290-188 26 0 70 2 91 3v181c-11-2-60-10-108-10-161 0-279 109-279 260V0H158" id="z"/><path fill="#979ea8" d="M370-1490V0H180v-1490h190" id="A"/><g id="a"><use transform="matrix(0.010850694444444444,0,0,0.010850694444444444,0,0)" xlink:href="#t"/><use transform="matrix(0.010850694444444444,0,0,0.010850694444444444,16.23263888888889,0)" xlink:href="#u"/><use transform="matrix(0.010850694444444444,0,0,0.010850694444444444,21.614583333333336,0)" xlink:href="#v"/><use transform="matrix(0.010850694444444444,0,0,0.010850694444444444,34.75477430555556,0)" xlink:href="#w"/><use transform="matrix(0.010850694444444444,0,0,0.010850694444444444,46.484375,0)" xlink:href="#x"/><use transform="matrix(0.010850694444444444,0,0,0.010850694444444444,53.5373263888889,0)" xlink:href="#y"/><use transform="matrix(0.010850694444444444,0,0,0.010850694444444444,66.49305555555556,0)" xlink:href="#z"/><use transform="matrix(0.010850694444444444,0,0,0.010850694444444444,75.20616319444446,0)" xlink:href="#A"/><use transform="matrix(0.010850694444444444,0,0,0.010850694444444444,81.1740451388889,0)" xlink:href="#w"/><use transform="matrix(0.010850694444444444,0,0,0.010850694444444444,92.90364583333334,0)" xlink:href="#w"/><use transform="matrix(0.010850694444444444,0,0,0.010850694444444444,104.6332465277778,0)" xlink:href="#v"/><use transform="matrix(0.010850694444444444,0,0,0.010850694444444444,117.7734375,0)" xlink:href="#y"/><use transform="matrix(0.010850694444444444,0,0,0.010850694444444444,130.72916666666666,0)" xlink:href="#z"/></g><path fill="#979ea8" d="M158 0v-1118h180V0H158zm91-1301c-68 0-125-53-125-119s57-119 125-119c69 0 126 53 126 119s-57 119-126 119" id="B"/><path fill="#979ea8" d="M678-1118v154H420V0H240v-964H20v-154h220v-149c0-194 155-293 318-293 85 0 141 18 168 30l-50 154c-19-6-47-17-97-17-111 0-159 58-159 166v109h258" id="C"/><path fill="#979ea8" d="M613 24c-304 0-509-231-509-576 0-350 205-580 509-580 216 0 392 114 453 309l-173 49c-33-115-133-197-280-197-223 0-326 196-326 419 0 220 103 415 326 415 150 0 252-85 285-206l172 49C1010-95 832 24 613 24" id="D"/><path fill="#979ea8" d="M471 26C259 26 90-98 90-318c0-256 228-303 435-329 202-27 287-16 287-108 0-139-79-219-234-219-161 0-248 86-283 164l-173-57c86-203 278-265 451-265 150 0 419 46 419 395V0H815v-152h-12C765-73 660 26 471 26zm31-159c199 0 310-134 310-271v-155c-30 35-226 55-295 64-131 17-246 59-246 186 0 116 97 176 231 176" id="E"/><g id="b"><use transform="matrix(0.010850694444444444,0,0,0.010850694444444444,0,0)" xlink:href="#t"/><use transform="matrix(0.010850694444444444,0,0,0.010850694444444444,16.23263888888889,0)" xlink:href="#y"/><use transform="matrix(0.010850694444444444,0,0,0.010850694444444444,29.18836805555556,0)" xlink:href="#z"/><use transform="matrix(0.010850694444444444,0,0,0.010850694444444444,37.90147569444444,0)" xlink:href="#x"/><use transform="matrix(0.010850694444444444,0,0,0.010850694444444444,45.17144097222222,0)" xlink:href="#B"/><use transform="matrix(0.010850694444444444,0,0,0.010850694444444444,50.553385416666664,0)" xlink:href="#C"/><use transform="matrix(0.010850694444444444,0,0,0.010850694444444444,58.77821180555555,0)" xlink:href="#B"/><use transform="matrix(0.010850694444444444,0,0,0.010850694444444444,64.16015625,0)" xlink:href="#D"/><use transform="matrix(0.010850694444444444,0,0,0.010850694444444444,77.07248263888889,0)" xlink:href="#E"/><use transform="matrix(0.010850694444444444,0,0,0.010850694444444444,89.55078125,0)" xlink:href="#x"/><use transform="matrix(0.010850694444444444,0,0,0.010850694444444444,96.60373263888889,0)" xlink:href="#y"/></g><path fill="#979ea8" d="M657 26c-323 0-524-166-541-416h195c15 169 171 246 346 246 202 0 356-106 356-265 5-203-294-238-475-293-239-73-380-191-380-389 0-252 224-419 512-419 294 0 499 171 508 396H992c-17-145-151-228-328-228-193 0-321 102-321 242 0 156 175 211 284 241l149 41c160 44 422 134 422 412 0 244-197 432-541 432" id="F"/><g id="c"><use transform="matrix(0.010850694444444444,0,0,0.010850694444444444,0,0)" xlink:href="#F"/><use transform="matrix(0.010850694444444444,0,0,0.010850694444444444,14.2578125,0)" xlink:href="#y"/><use transform="matrix(0.010850694444444444,0,0,0.010850694444444444,27.213541666666664,0)" xlink:href="#D"/><use transform="matrix(0.010850694444444444,0,0,0.010850694444444444,39.908854166666664,0)" xlink:href="#z"/><use transform="matrix(0.010850694444444444,0,0,0.010850694444444444,47.90581597222221,0)" xlink:href="#y"/><use transform="matrix(0.010850694444444444,0,0,0.010850694444444444,60.86154513888888,0)" xlink:href="#x"/></g><path fill="#979ea8" d="M180 0v-1490h510c348 0 508 209 508 474 0 266-160 477-507 477H370V0H180zm190-706h312c236 0 327-133 327-310 0-176-91-307-329-307H370v617" id="G"/><path fill="#979ea8" d="M613 24c-304 0-509-231-509-576 0-350 205-580 509-580 305 0 511 230 511 580 0 345-206 576-511 576zm0-161c226 0 329-195 329-415 0-222-103-419-329-419-223 0-326 196-326 419 0 220 103 415 326 415" id="H"/><path fill="#979ea8" d="M577 24c-279 0-473-224-473-580 0-354 195-576 474-576 218 0 287 134 324 193h14v-551h180V0H922v-173h-20C865-111 790 24 577 24zm27-161c203 0 314-172 314-421 0-247-108-413-314-413-212 0-317 181-317 413 0 235 108 421 317 421" id="I"/><g id="d"><use transform="matrix(0.010850694444444444,0,0,0.010850694444444444,0,0)" xlink:href="#G"/><use transform="matrix(0.010850694444444444,0,0,0.010850694444444444,14.073350694444445,0)" xlink:href="#H"/><use transform="matrix(0.010850694444444444,0,0,0.010850694444444444,27.39800347222222,0)" xlink:href="#I"/></g><path d="M172-543c0-365 197-575 553-575 119 0 231 20 336 59l-62 158c-100-38-189-57-268-57-247 0-371 138-371 413 0 271 120 406 361 406 105 0 212-21 321-62v160C953 0 843 20 713 20c-347 1-541-210-541-563" id="J"/><path d="M596-1118c288 2 430 92 430 366V0H895l-37-152h-8C752-34 680 17 483 20 272 23 135-98 135-307c0-221 170-337 510-348l203-7c15-197-55-305-244-305-98 0-207 27-328 82l-63-137c131-64 258-96 383-96zm-72 991c194 0 325-116 322-311v-99c-251 15-522-6-522 232 0 119 67 178 200 178" id="K"/><path d="M285-465v-168h659v168H285" id="L"/><path d="M1020-150v138C933 9 849 20 768 20 527 20 406-95 406-324v-637H139v-94l267-49 77-287h105v293h438v137H588v637c0 130 64 195 192 195 62 0 142-7 240-21" id="M"/><path d="M532-1413l-268-21v-122h451v1413l352 20V0H188v-123l344-20v-1270" id="N"/><path d="M1026-301c0 225-197 321-448 321-165 0-290-23-375-69v-166c129 57 252 86 370 86 183 0 275-54 275-162 0-38-16-71-49-99s-108-63-226-106c-156-57-253-112-293-160s-61-105-61-171c2-338 524-340 789-217l-60 149c-121-48-228-72-319-72-157 0-236 44-236 133 0 41 17 74 51 98s111 57 232 101c141 51 234 101 280 151s70 111 70 183" id="O"/><g id="e"><use transform="matrix(0.009114583333333334,0,0,0.009114583333333334,0,0)" xlink:href="#J"/><use transform="matrix(0.009114583333333334,0,0,0.009114583333333334,11.201822916666668,0)" xlink:href="#K"/><use transform="matrix(0.009114583333333334,0,0,0.009114583333333334,22.403645833333336,0)" xlink:href="#L"/><use transform="matrix(0.009114583333333334,0,0,0.009114583333333334,33.60546875,0)" xlink:href="#M"/><use transform="matrix(0.009114583333333334,0,0,0.009114583333333334,44.80729166666667,0)" xlink:href="#N"/><use transform="matrix(0.009114583333333334,0,0,0.009114583333333334,56.00911458333334,0)" xlink:href="#O"/></g><path d="M631-1118c283 0 470 204 465 491v113H322c5 250 120 375 344 375 130 0 253-25 370-76v160C925-5 804 20 672 20c-329 0-539-224-539-561 0-331 182-577 498-577zM326-662h573c0-203-91-305-272-305-183 0-284 102-301 305" id="P"/><path d="M442-897c93-139 173-221 377-221 79 0 159 15 240 45l-49 166c-82-30-157-45-224-45-221 0-340 134-340 360V0H264v-1098h148l22 201h8" id="Q"/><path d="M498 0L82-1098h188l240 652c57 154 90 262 100 325h6c67-256 244-708 340-977h189L729 0H498" id="R"/><g id="f"><use transform="matrix(0.009114583333333334,0,0,0.009114583333333334,0,0)" xlink:href="#O"/><use transform="matrix(0.009114583333333334,0,0,0.009114583333333334,11.201822916666668,0)" xlink:href="#P"/><use transform="matrix(0.009114583333333334,0,0,0.009114583333333334,22.403645833333336,0)" xlink:href="#Q"/><use transform="matrix(0.009114583333333334,0,0,0.009114583333333334,33.60546875,0)" xlink:href="#R"/><use transform="matrix(0.009114583333333334,0,0,0.009114583333333334,44.80729166666667,0)" xlink:href="#P"/><use transform="matrix(0.009114583333333334,0,0,0.009114583333333334,56.00911458333334,0)" xlink:href="#Q"/><use transform="matrix(0.009114583333333334,0,0,0.009114583333333334,67.21093750000001,0)" xlink:href="#L"/><use transform="matrix(0.009114583333333334,0,0,0.009114583333333334,78.41276041666669,0)" xlink:href="#M"/><use transform="matrix(0.009114583333333334,0,0,0.009114583333333334,89.61458333333336,0)" xlink:href="#N"/><use transform="matrix(0.009114583333333334,0,0,0.009114583333333334,100.81640625000003,0)" xlink:href="#O"/></g><path d="M866-1417c-164 2-207 56-211 215v104h389v137H655V0H473v-961H156v-110l317-33c-17-319 78-463 389-463 86 0 170 12 252 35l-41 143c-69-19-138-28-207-28" id="S"/><path d="M739-1436c0 71-43 115-106 115-71 0-107-38-107-115 0-76 36-114 107-114s106 38 106 114zM541-954l-269-21v-123h451v955l352 20V0H197v-123l344-20v-811" id="T"/><path d="M188-739c-1-248 156-381 410-379 57 0 107 7 150 20h378v113l-196 27c43 57 65 128 65 213 2 253-212 385-489 346-67 37-100 82-100 133 0 56 54 84 161 84h187c216-2 358 93 358 297 0 251-188 377-565 377-145 0-255-26-331-80S102 283 102 186c0-141 80-231 240-270-64-31-96-83-96-154 0-75 44-139 133-192-109-41-191-166-191-309zm406 221c149 0 223-77 223-230 0-159-75-239-225-239s-225 81-225 242c0 151 76 227 227 227zm346 649c0-146-78-149-248-149H504c-153 0-230 66-230 198 0 116 90 174 271 174 263 0 395-74 395-223" id="U"/><path d="M887 0v-707c0-173-79-260-238-260-205 0-307 133-307 398V0H160v-1098h147l27 148h10c69-112 181-168 336-168 259 0 389 134 389 401V0H887" id="V"/><path d="M137-547c0-322 136-571 430-571 137 0 245 53 322 160h12c-24-215-7-376-12-598h182V0H924l-27-147h-8C814-36 706 20 567 20c-294 0-430-246-430-567zm463 416c241 0 288-157 289-416 0-151-23-259-69-323s-121-97-222-97c-181 0-272 141-272 422 0 276 91 414 274 414" id="W"/><path d="M578-131c239 0 309-137 309-397v-570h182V0H922l-27-147h-10C815-36 704 20 551 20c-261 0-391-134-391-401v-717h182v707c0 173 79 260 236 260" id="X"/><g id="g"><use transform="matrix(0.009114583333333334,0,0,0.009114583333333334,0,0)" xlink:href="#O"/><use transform="matrix(0.009114583333333334,0,0,0.009114583333333334,11.201822916666668,0)" xlink:href="#P"/><use transform="matrix(0.009114583333333334,0,0,0.009114583333333334,22.403645833333336,0)" xlink:href="#N"/><use transform="matrix(0.009114583333333334,0,0,0.009114583333333334,33.60546875,0)" xlink:href="#S"/><use transform="matrix(0.009114583333333334,0,0,0.009114583333333334,44.80729166666667,0)" xlink:href="#O"/><use transform="matrix(0.009114583333333334,0,0,0.009114583333333334,56.00911458333334,0)" xlink:href="#T"/><use transform="matrix(0.009114583333333334,0,0,0.009114583333333334,67.21093750000001,0)" xlink:href="#U"/><use transform="matrix(0.009114583333333334,0,0,0.009114583333333334,78.41276041666669,0)" xlink:href="#V"/><use transform="matrix(0.009114583333333334,0,0,0.009114583333333334,89.61458333333336,0)" xlink:href="#P"/><use transform="matrix(0.009114583333333334,0,0,0.009114583333333334,100.81640625000003,0)" xlink:href="#W"/><use transform="matrix(0.009114583333333334,0,0,0.009114583333333334,112.01822916666671,0)" xlink:href="#L"/><use transform="matrix(0.009114583333333334,0,0,0.009114583333333334,123.22005208333337,0)" xlink:href="#T"/><use transform="matrix(0.009114583333333334,0,0,0.009114583333333334,134.42187500000003,0)" xlink:href="#O"/><use transform="matrix(0.009114583333333334,0,0,0.009114583333333334,145.62369791666669,0)" xlink:href="#O"/><use transform="matrix(0.009114583333333334,0,0,0.009114583333333334,156.82552083333334,0)" xlink:href="#X"/><use transform="matrix(0.009114583333333334,0,0,0.009114583333333334,168.02734375,0)" xlink:href="#P"/><use transform="matrix(0.009114583333333334,0,0,0.009114583333333334,179.22916666666666,0)" xlink:href="#Q"/></g><g id="h"><use transform="matrix(0.009114583333333334,0,0,0.009114583333333334,0,0)" xlink:href="#J"/><use transform="matrix(0.009114583333333334,0,0,0.009114583333333334,11.201822916666668,0)" xlink:href="#K"/><use transform="matrix(0.009114583333333334,0,0,0.009114583333333334,22.403645833333336,0)" xlink:href="#L"/><use transform="matrix(0.009114583333333334,0,0,0.009114583333333334,33.60546875,0)" xlink:href="#T"/><use transform="matrix(0.009114583333333334,0,0,0.009114583333333334,44.80729166666667,0)" xlink:href="#O"/><use transform="matrix(0.009114583333333334,0,0,0.009114583333333334,56.00911458333334,0)" xlink:href="#O"/><use transform="matrix(0.009114583333333334,0,0,0.009114583333333334,67.21093750000001,0)" xlink:href="#X"/><use transform="matrix(0.009114583333333334,0,0,0.009114583333333334,78.41276041666669,0)" xlink:href="#P"/><use transform="matrix(0.009114583333333334,0,0,0.009114583333333334,89.61458333333336,0)" xlink:href="#Q"/></g><g id="i"><use transform="matrix(0.009114583333333334,0,0,0.009114583333333334,0,0)" xlink:href="#J"/><use transform="matrix(0.009114583333333334,0,0,0.009114583333333334,11.201822916666668,0)" xlink:href="#K"/><use transform="matrix(0.009114583333333334,0,0,0.009114583333333334,22.403645833333336,0)" xlink:href="#L"/><use transform="matrix(0.009114583333333334,0,0,0.009114583333333334,33.60546875,0)" xlink:href="#J"/><use transform="matrix(0.009114583333333334,0,0,0.009114583333333334,44.80729166666667,0)" xlink:href="#P"/><use transform="matrix(0.009114583333333334,0,0,0.009114583333333334,56.00911458333334,0)" xlink:href="#Q"/><use transform="matrix(0.009114583333333334,0,0,0.009114583333333334,67.21093750000001,0)" xlink:href="#M"/></g><g id="j"><use transform="matrix(0.009114583333333334,0,0,0.009114583333333334,0,0)" xlink:href="#O"/><use transform="matrix(0.009114583333333334,0,0,0.009114583333333334,11.201822916666668,0)" xlink:href="#P"/><use transform="matrix(0.009114583333333334,0,0,0.009114583333333334,22.403645833333336,0)" xlink:href="#Q"/><use transform="matrix(0.009114583333333334,0,0,0.009114583333333334,33.60546875,0)" xlink:href="#R"/><use transform="matrix(0.009114583333333334,0,0,0.009114583333333334,44.80729166666667,0)" xlink:href="#P"/><use transform="matrix(0.009114583333333334,0,0,0.009114583333333334,56.00911458333334,0)" xlink:href="#Q"/><use transform="matrix(0.009114583333333334,0,0,0.009114583333333334,67.21093750000001,0)" xlink:href="#L"/><use transform="matrix(0.009114583333333334,0,0,0.009114583333333334,78.41276041666669,0)" xlink:href="#J"/><use transform="matrix(0.009114583333333334,0,0,0.009114583333333334,89.61458333333336,0)" xlink:href="#P"/><use transform="matrix(0.009114583333333334,0,0,0.009114583333333334,100.81640625000003,0)" xlink:href="#Q"/><use transform="matrix(0.009114583333333334,0,0,0.009114583333333334,112.01822916666671,0)" xlink:href="#M"/></g><path d="M1087-391c0 281-226 411-532 411-177 0-315-23-414-69v-178c141 57 279 86 414 86 233 0 350-80 350-240 0-69-24-123-71-160s-142-82-285-133c-139-49-239-106-299-174s-90-156-90-264c2-252 211-371 481-371 153 0 291 26 416 78l-64 164c-129-52-249-78-360-78-195 0-293 70-293 209 0 68 22 123 66 164s134 85 270 133c164 58 273 119 328 181s83 143 83 241" id="Y"/><g id="k"><use transform="matrix(0.010850694444444444,0,0,0.010850694444444444,0,0)" xlink:href="#Y"/><use transform="matrix(0.010850694444444444,0,0,0.010850694444444444,13.335503472222221,0)" xlink:href="#P"/><use transform="matrix(0.010850694444444444,0,0,0.010850694444444444,26.671006944444443,0)" xlink:href="#Q"/><use transform="matrix(0.010850694444444444,0,0,0.010850694444444444,40.006510416666664,0)" xlink:href="#R"/><use transform="matrix(0.010850694444444444,0,0,0.010850694444444444,53.342013888888886,0)" xlink:href="#P"/><use transform="matrix(0.010850694444444444,0,0,0.010850694444444444,66.67751736111111,0)" xlink:href="#Q"/></g><path d="M326-731c0 353 139 584 471 588 87 0 196-19 327-58v162c-97 39-217 59-358 59-433-1-637-301-637-753 0-438 243-750 668-750 147 0 274 29 383 86l-78 156c-103-52-204-78-305-78-307 1-471 259-471 588" id="Z"/><g id="l"><use transform="matrix(0.010850694444444444,0,0,0.010850694444444444,0,0)" xlink:href="#Z"/><use transform="matrix(0.010850694444444444,0,0,0.010850694444444444,13.335503472222221,0)" xlink:href="#N"/><use transform="matrix(0.010850694444444444,0,0,0.010850694444444444,26.671006944444443,0)" xlink:href="#T"/><use transform="matrix(0.010850694444444444,0,0,0.010850694444444444,40.006510416666664,0)" xlink:href="#P"/><use transform="matrix(0.010850694444444444,0,0,0.010850694444444444,53.342013888888886,0)" xlink:href="#V"/><use transform="matrix(0.010850694444444444,0,0,0.010850694444444444,66.67751736111111,0)" xlink:href="#M"/></g><path fill="#979ea8" d="M180 0v-1490h528c311 0 458 177 458 395 0 191-114 278-244 313v14c139 9 302 137 302 371 0 225-148 397-499 397H180zm190-168h350c232 0 321-102 321-231 0-149-120-277-311-277H370v508zm0-668h328c160 0 286-101 286-255 0-129-87-231-280-231H370v486" id="aa"/><path fill="#979ea8" d="M338-670V0H158v-1118h173l1 207c72-158 192-221 342-221 226 0 378 139 378 422V0H872v-695c0-172-96-275-252-275-161 0-282 109-282 300" id="ab"/><g id="m"><use transform="matrix(0.010850694444444444,0,0,0.010850694444444444,0,0)" xlink:href="#aa"/><use transform="matrix(0.010850694444444444,0,0,0.010850694444444444,14.539930555555555,0)" xlink:href="#v"/><use transform="matrix(0.010850694444444444,0,0,0.010850694444444444,27.68012152777778,0)" xlink:href="#ab"/><use transform="matrix(0.010850694444444444,0,0,0.010850694444444444,40.80946180555556,0)" xlink:href="#I"/><use transform="matrix(0.010850694444444444,0,0,0.010850694444444444,54.416232638888886,0)" xlink:href="#u"/><use transform="matrix(0.010850694444444444,0,0,0.010850694444444444,59.79817708333333,0)" xlink:href="#y"/></g><path fill="#979ea8" d="M611 442c-248 0-391-105-460-228l146-94c47 65 117 165 314 165 178 0 307-82 307-266v-224h-17C863-141 792-18 576-18c-268 0-472-195-472-546 0-346 197-568 476-568 216 0 288 133 326 193h17v-179h175V29c0 289-215 413-487 413zm-5-620c203 0 314-146 314-390 0-237-108-403-314-403-213 0-319 180-319 403 0 230 109 390 319 390" id="ac"/><path fill="#979ea8" d="M180 0v-1490h270l367 940c28 72 75 218 110 339 35-117 81-264 110-339l362-940h271V0h-187c2-448-5-837 7-1287-157 497-311 829-483 1287H842C666-458 514-784 354-1284c12 438 5 843 7 1284H180" id="ad"/><path fill="#979ea8" d="M158 418v-1536h174v179h20c37-59 106-193 324-193 279 0 474 222 474 576 0 356-194 580-473 580-213 0-288-135-325-197h-14v591H158zm492-555c209 0 317-186 317-421 0-232-105-413-317-413-206 0-314 166-314 413 0 249 111 421 314 421" id="ae"/><g id="n"><use transform="matrix(0.010850694444444444,0,0,0.010850694444444444,0,0)" xlink:href="#t"/><use transform="matrix(0.010850694444444444,0,0,0.010850694444444444,16.23263888888889,0)" xlink:href="#H"/><use transform="matrix(0.010850694444444444,0,0,0.010850694444444444,29.557291666666664,0)" xlink:href="#ab"/><use transform="matrix(0.010850694444444444,0,0,0.010850694444444444,42.68663194444444,0)" xlink:href="#C"/><use transform="matrix(0.010850694444444444,0,0,0.010850694444444444,50.91145833333333,0)" xlink:href="#B"/><use transform="matrix(0.010850694444444444,0,0,0.010850694444444444,56.29340277777778,0)" xlink:href="#ac"/><use transform="matrix(0.010850694444444444,0,0,0.010850694444444444,69.921875,0)" xlink:href="#ad"/><use transform="matrix(0.010850694444444444,0,0,0.010850694444444444,89.99565972222221,0)" xlink:href="#E"/><use transform="matrix(0.010850694444444444,0,0,0.010850694444444444,102.47395833333334,0)" xlink:href="#ae"/></g><path fill="#979ea8" d="M140 405l46-156c120 36 205 19 263-150l32-93L54-1118h197c107 313 237 620 324 950 87-331 219-637 326-950h196L606 167c-68 178-176 259-334 259-64 0-113-12-132-21" id="af"/><g id="o"><use transform="matrix(0.010850694444444444,0,0,0.010850694444444444,0,0)" xlink:href="#t"/><use transform="matrix(0.010850694444444444,0,0,0.010850694444444444,16.23263888888889,0)" xlink:href="#u"/><use transform="matrix(0.010850694444444444,0,0,0.010850694444444444,21.614583333333336,0)" xlink:href="#v"/><use transform="matrix(0.010850694444444444,0,0,0.010850694444444444,34.75477430555556,0)" xlink:href="#w"/><use transform="matrix(0.010850694444444444,0,0,0.010850694444444444,46.484375,0)" xlink:href="#x"/><use transform="matrix(0.010850694444444444,0,0,0.010850694444444444,53.5373263888889,0)" xlink:href="#y"/><use transform="matrix(0.010850694444444444,0,0,0.010850694444444444,66.49305555555556,0)" xlink:href="#z"/><use transform="matrix(0.010850694444444444,0,0,0.010850694444444444,75.20616319444446,0)" xlink:href="#G"/><use transform="matrix(0.010850694444444444,0,0,0.010850694444444444,89.2795138888889,0)" xlink:href="#H"/><use transform="matrix(0.010850694444444444,0,0,0.010850694444444444,102.60416666666666,0)" xlink:href="#u"/><use transform="matrix(0.010850694444444444,0,0,0.010850694444444444,107.98611111111111,0)" xlink:href="#B"/><use transform="matrix(0.010850694444444444,0,0,0.010850694444444444,113.36805555555556,0)" xlink:href="#D"/><use transform="matrix(0.010850694444444444,0,0,0.010850694444444444,125.6293402777778,0)" xlink:href="#af"/></g><path d="M510-563l-393-535h207l290 410 291-410h207L717-563 1130 0H924L614-436 303 0H96" id="ag"/><path d="M977 0v-707c0-97-9-165-27-203s-47-57-88-57c-58 0-100 28-126 83s-40 148-40 278V0H535v-707c0-173-42-260-125-260-56 0-96 26-120 79s-36 160-36 319V0H92v-1098h127l27 148h10c45-112 112-168 201-168 109 0 180 61 213 182h6c51-121 124-182 219-182 85 0 147 30 186 92s58 165 58 309V0H977" id="ah"/><path d="M1092-551c0 322-136 571-430 571-138 0-245-53-322-159h-12c24 220 7 402 12 631H158v-1590h147l27 148h8c73-112 181-168 322-168 294 0 430 246 430 567zM629-967c-241 0-288 156-289 416 0 151 24 259 70 323s120 97 221 97c181 0 272-141 272-422 0-276-91-414-274-414" id="ai"/><path d="M1092-551c0 322-136 571-430 571-138 0-245-53-322-159h-12L291 0H158v-1556h182c-2 221 6 379-8 602h8c71-109 179-164 322-164 294 0 430 246 430 567zM629-967c-241 0-289 146-289 416 0 151 24 259 70 323s120 97 221 97c181 0 272-141 272-422 0-276-91-414-274-414" id="aj"/><g id="p"><use transform="matrix(0.008680555555555556,0,0,0.008680555555555556,0,0)" xlink:href="#P"/><use transform="matrix(0.008680555555555556,0,0,0.008680555555555556,10.668402777777779,0)" xlink:href="#ag"/><use transform="matrix(0.008680555555555556,0,0,0.008680555555555556,21.336805555555557,0)" xlink:href="#K"/><use transform="matrix(0.008680555555555556,0,0,0.008680555555555556,32.005208333333336,0)" xlink:href="#ah"/><use transform="matrix(0.008680555555555556,0,0,0.008680555555555556,42.673611111111114,0)" xlink:href="#ai"/><use transform="matrix(0.008680555555555556,0,0,0.008680555555555556,53.34201388888889,0)" xlink:href="#N"/><use transform="matrix(0.008680555555555556,0,0,0.008680555555555556,64.01041666666667,0)" xlink:href="#P"/><use transform="matrix(0.008680555555555556,0,0,0.008680555555555556,74.67881944444446,0)" xlink:href="#L"/><use transform="matrix(0.008680555555555556,0,0,0.008680555555555556,85.34722222222223,0)" xlink:href="#aj"/><use transform="matrix(0.008680555555555556,0,0,0.008680555555555556,96.015625,0)" xlink:href="#X"/><use transform="matrix(0.008680555555555556,0,0,0.008680555555555556,106.68402777777777,0)" xlink:href="#V"/><use transform="matrix(0.008680555555555556,0,0,0.008680555555555556,117.35243055555554,0)" xlink:href="#W"/><use transform="matrix(0.008680555555555556,0,0,0.008680555555555556,128.02083333333331,0)" xlink:href="#N"/><use transform="matrix(0.008680555555555556,0,0,0.008680555555555556,138.6892361111111,0)" xlink:href="#P"/></g><g id="q"><use transform="matrix(0.009114583333333334,0,0,0.009114583333333334,0,0)" xlink:href="#P"/><use transform="matrix(0.009114583333333334,0,0,0.009114583333333334,11.201822916666668,0)" xlink:href="#ag"/><use transform="matrix(0.009114583333333334,0,0,0.009114583333333334,22.403645833333336,0)" xlink:href="#K"/><use transform="matrix(0.009114583333333334,0,0,0.009114583333333334,33.60546875,0)" xlink:href="#ah"/><use transform="matrix(0.009114583333333334,0,0,0.009114583333333334,44.80729166666667,0)" xlink:href="#ai"/><use transform="matrix(0.009114583333333334,0,0,0.009114583333333334,56.00911458333334,0)" xlink:href="#N"/><use transform="matrix(0.009114583333333334,0,0,0.009114583333333334,67.21093750000001,0)" xlink:href="#P"/><use transform="matrix(0.009114583333333334,0,0,0.009114583333333334,78.41276041666669,0)" xlink:href="#L"/><use transform="matrix(0.009114583333333334,0,0,0.009114583333333334,89.61458333333336,0)" xlink:href="#aj"/><use transform="matrix(0.009114583333333334,0,0,0.009114583333333334,100.81640625000003,0)" xlink:href="#X"/><use transform="matrix(0.009114583333333334,0,0,0.009114583333333334,112.01822916666671,0)" xlink:href="#V"/><use transform="matrix(0.009114583333333334,0,0,0.009114583333333334,123.22005208333337,0)" xlink:href="#W"/><use transform="matrix(0.009114583333333334,0,0,0.009114583333333334,134.42187500000003,0)" xlink:href="#N"/><use transform="matrix(0.009114583333333334,0,0,0.009114583333333334,145.62369791666669,0)" xlink:href="#P"/></g><path d="M1112-551c0 331-186 571-502 571-301 0-495-251-495-571 0-330 184-567 501-567 302 0 496 249 496 567zM614-131c207 0 310-140 310-420 0-277-104-416-312-416-206 0-309 139-309 416 0 280 104 420 311 420" id="ak"/><g id="r"><use transform="matrix(0.009114583333333334,0,0,0.009114583333333334,0,0)" xlink:href="#K"/><use transform="matrix(0.009114583333333334,0,0,0.009114583333333334,11.201822916666668,0)" xlink:href="#W"/><use transform="matrix(0.009114583333333334,0,0,0.009114583333333334,22.403645833333336,0)" xlink:href="#W"/><use transform="matrix(0.009114583333333334,0,0,0.009114583333333334,33.60546875,0)" xlink:href="#L"/><use transform="matrix(0.009114583333333334,0,0,0.009114583333333334,44.80729166666667,0)" xlink:href="#J"/><use transform="matrix(0.009114583333333334,0,0,0.009114583333333334,56.00911458333334,0)" xlink:href="#P"/><use transform="matrix(0.009114583333333334,0,0,0.009114583333333334,67.21093750000001,0)" xlink:href="#Q"/><use transform="matrix(0.009114583333333334,0,0,0.009114583333333334,78.41276041666669,0)" xlink:href="#M"/><use transform="matrix(0.009114583333333334,0,0,0.009114583333333334,89.61458333333336,0)" xlink:href="#T"/><use transform="matrix(0.009114583333333334,0,0,0.009114583333333334,100.81640625000003,0)" xlink:href="#S"/><use transform="matrix(0.009114583333333334,0,0,0.009114583333333334,112.01822916666671,0)" xlink:href="#T"/><use transform="matrix(0.009114583333333334,0,0,0.009114583333333334,123.22005208333337,0)" xlink:href="#J"/><use transform="matrix(0.009114583333333334,0,0,0.009114583333333334,134.42187500000003,0)" xlink:href="#K"/><use transform="matrix(0.009114583333333334,0,0,0.009114583333333334,145.62369791666669,0)" xlink:href="#M"/><use transform="matrix(0.009114583333333334,0,0,0.009114583333333334,156.82552083333334,0)" xlink:href="#P"/><use transform="matrix(0.009114583333333334,0,0,0.009114583333333334,168.02734375,0)" xlink:href="#O"/><use transform="matrix(0.009114583333333334,0,0,0.009114583333333334,179.22916666666666,0)" xlink:href="#L"/><use transform="matrix(0.009114583333333334,0,0,0.009114583333333334,190.43098958333331,0)" xlink:href="#R"/><use transform="matrix(0.009114583333333334,0,0,0.009114583333333334,201.63281249999997,0)" xlink:href="#ak"/><use transform="matrix(0.009114583333333334,0,0,0.009114583333333334,212.8346354166666,0)" xlink:href="#N"/><use transform="matrix(0.009114583333333334,0,0,0.009114583333333334,224.0364583333333,0)" xlink:href="#X"/><use transform="matrix(0.009114583333333334,0,0,0.009114583333333334,235.23828124999994,0)" xlink:href="#ah"/><use transform="matrix(0.009114583333333334,0,0,0.009114583333333334,246.44010416666663,0)" xlink:href="#P"/></g><path fill="#54c45e" d="M75-1237v-253h1217v253H837V0H531v-1237H75" id="al"/><path fill="#54c45e" d="M135 0v-1490h305v1237h643V0H135" id="am"/><path fill="#54c45e" d="M681 22C323 22 94-145 85-462h297c10 151 131 226 296 226 163 0 271-77 271-190 0-102-95-149-257-189l-164-41c-252-61-403-188-403-405 0-269 236-449 560-449 330 0 546 183 551 445H941c-11-119-106-188-259-188-156 0-244 72-244 172-3 156 226 185 373 221 250 61 445 186 445 436 0 271-213 446-575 446" id="an"/><g id="s"><use transform="matrix(0.010850694444444444,0,0,0.010850694444444444,0,0)" xlink:href="#al"/><use transform="matrix(0.010850694444444444,0,0,0.010850694444444444,14.832899305555555,0)" xlink:href="#am"/><use transform="matrix(0.010850694444444444,0,0,0.010850694444444444,27.39800347222222,0)" xlink:href="#an"/></g></defs></g></svg>